<?xml version="1.0" encoding="utf-8"?>
<!-- Generator: Adobe Illustrator 19.1.0, SVG Export Plug-In . SVG Version: 6.00 Build 0)  -->
<svg version="1.1" id="Layer_1" xmlns="http://www.w3.org/2000/svg" xmlns:xlink="http://www.w3.org/1999/xlink" x="0px" y="0px"
	 viewBox="0 0 51 39.8" style="enable-background:new 0 0 51 39.8;" xml:space="preserve">
<style type="text/css">
	.st0{fill:#FFFFFF;}
</style>
<path id="head_outline" class="st0" d="M49.8,10.1c-0.1-0.3-0.3-0.1-0.6-0.1H31.3h-2.9h-6.6c-0.6,0-1.3-1.3-1.3-1.9v0
	c0-0.6,0.7-1.1,1.3-1.1h5.9c-0.4-2-1.7-7-6.9-7H0.6C0.1,0-0.1,0.2,0.1,0.6l20.1,37.9c0.6,1.1,1.2,1.4,2.8,1.3
	c2.5-0.1,15.1-0.6,23.9-6.9C53.3,28.4,50.4,13,49.8,10.1z"/>
</svg>
