<svg xmlns="http://www.w3.org/2000/svg" xmlns:xlink="http://www.w3.org/1999/xlink" version="1.1" baseProfile="tiny" x="0px" y="0px" viewBox="0 0 100 100" xml:space="preserve"><path fill="#ffffff" d="M20.2,59c0,1.2,1,2.2,2.2,2.2h8.9v11.1c0,0.8,0.5,1.6,1.2,2c0.3,0.2,0.7,0.2,1,0.2c0.5,0,0.9-0.1,1.3-0.4  l17.9-13h24.9c1.2,0,2.2-1,2.2-2.2V27.6c0-1.2-1-2.2-2.2-2.2H22.4c-1.2,0-2.2,1-2.2,2.2V59z M24.6,29.8h50.7v26.9H52  c-0.5,0-0.9,0.1-1.3,0.4L35.8,68v-9c0-1.2-1-2.2-2.2-2.2h-8.9V29.8z"></path><path fill="#ffffff" d="M35.4,40.1c-4.8,0-4.8,7.4,0,7.4C40.2,47.5,40.2,40.1,35.4,40.1z"></path><path fill="#ffffff" d="M50,47.5c4.8,0,4.8-7.4,0-7.4C45.2,40.1,45.2,47.5,50,47.5z"></path><path fill="#ffffff" d="M64.6,47.5c4.8,0,4.8-7.4,0-7.4C59.8,40.1,59.8,47.5,64.6,47.5z"></path></svg>